<svg xmlns="http://www.w3.org/2000/svg" xmlns:svgjs="http://svgjs.com/svgjs" xmlns:xlink="http://www.w3.org/1999/xlink" width="288" height="288"><svg xmlns="http://www.w3.org/2000/svg" width="288" height="288" version="1.0" viewBox="0 0 628 636"><g fill="#2d6cdf" class="color000 svgShape" transform="matrix(.1 0 0 -.1 0 636)"><path d="M3155 3739c-101-13-204-90-252-188-25-49-28-67-28-151 0-79 4-103 23-141 37-75 87-125 160-161l66-33 248-3c248-3 248-3 305 22l58 26 49-25c77-39 181-30 238 22 17 15 19 15 36 0 82-75 246-54 317 40 48 62 55 106 55 355l0 228-80 0-80 0 0-230 0-231-25-24c-31-32-74-33-103-2-21 22-22 32-22 225l0 202-80 0-80 0 0-199c0-185-1-200-21-225-28-36-80-36-108 0-20 25-21 39-21 255l0 229-80 0-80 0 0-233c0-231 0-234-23-255-18-17-36-22-74-22l-50 0 21 43c31 63 34 184 6 259-56 151-209 239-375 217zm100-160c84-24 135-89 135-174 0-60-19-103-63-142-115-101-297-15-297 141 0 83 53 151 138 176 37 11 42 11 87-1zM2407 3636c-86-32-149-91-182-170-9-21-19-77-22-124-9-124-6-122-204-122l-160 0-24-55c-14-30-27-66-31-80l-7-26 216 3 215 3 46 32 46 33 58-33c52-29 64-32 142-32 69 0 93 5 127 23 110 58 165 147 165 267 0 120-56 211-165 267-53 27-166 34-220 14zm151-160c88-45 103-153 32-221-27-26-39-30-90-30-51 0-63 4-89 29-37 35-55 85-46 126 8 36 49 88 79 100 32 13 84 11 114-4zM3395 2993c-46-36-227-114-320-138-220-58-487-41-696 45l-67 28-31-74-30-74 37-16c71-30 178-63 262-81 119-25 382-25 500 1 145 31 304 94 411 162l37 23-34 65c-19 36-38 67-42 70-4 2-16-3-27-11zM2239 2387c-29-19-34-30-37-66-4-56 12-73 100-107 102-40 129-84 88-137-44-56-150-43-178 22-15 34-16 35-20 11-3-18 4-32 27-52 27-24 40-28 91-28 78 0 115 28 115 89 0 52-17 68-107 106-88 37-117 70-99 113 24 57 104 70 150 24 15-15 30-34 33-42 3-8 8-12 12-9 13 12-14 60-46 79-43 26-87 25-129-3zM3682 2375c0-16 2-22 5-12 2 9 2 23 0 30-3 6-5-1-5-18zM2539 2277c-43-29-59-60-59-121 0-43 4-53 39-87 36-36 43-39 95-39 50 0 60 4 92 33 66 60 56 171-19 217-44 27-105 26-148-3zm154-24c104-93-5-257-130-197-98 48-90 183 12 218 43 15 85 8 118-21zM2869 2277c-43-29-59-60-59-121 0-43 4-53 39-87 36-36 43-39 95-39 50 0 60 4 92 33 66 60 56 171-19 217-44 27-105 26-148-3zm154-24c104-93-5-257-130-197-98 48-90 183 12 218 43 15 85 8 118-21zM3163 2165c1-136 1-137 6-39 7 110 22 148 64 156 64 12 86-29 89-172l1-85 6 107c7 122 22 151 82 151 50 0 59-21 59-145 0-65 4-108 10-108 6 0 10 43 10 109 0 94-3 112-21 135-26 33-75 35-113 5l-27-21-23 21c-28 27-76 27-109 1l-26-20-4 22c-2 13-4-40-4-117zM3684 2165c0-77 2-107 3-67 2 40 2 103 0 140-2 37-3 4-3-73zM3829 2277c-43-29-59-60-59-121 0-43 4-53 39-87 36-36 43-39 95-39 50 0 60 4 92 33 66 60 56 171-19 217-44 27-105 26-148-3zm154-24c104-93-5-257-130-197-98 48-90 183 12 218 43 15 85 8 118-21zM3570 2050c0-11 5-20 10-20 6 0 10 9 10 20 0 11-4 20-10 20-5 0-10-9-10-20z" class="color000 svgShape"/></g></svg></svg>